# xmcd
#
# Track frame offsets:
#	150
#	16686
#	34326
#	52642
#	70593
#	85790
#	100391
#	118393
#	133897
#	149948
#	168735
#	184344
#	202729
#	218159
#	234134
#	249007
#	265954
#	281374
#	299392
#
# Disc length: 4163 seconds
#
# Revision: 1
# Processed by: cddbd v1.5.2PL0 Copyright (c) Steve Scherf et al.
# Submitted via: audiograbber 1.83.01
#
DISCID=16104113
DTITLE=Various Artist - Hott Country 202
DYEAR=2012
DGENRE=Country
TTITLE0=Tim McGraw - One Of These Nights
TTITLE1=Taylor Swift - Begin Again
TTITLE2=Rascal Flatts - Come Wake Me Up
TTITLE3=Thomas Rhett - Beer With Jesus
TTITLE4=Kira Isabella - Songs About You
TTITLE5=Edens Edge - Too Good To Be True
TTITLE6=Carrie Underwood - Two Black Cadilliacs
TTITLE7=Tim McGraw - Truck Yeah
TTITLE8=Jana Kramer - Whiskey
TTITLE9=Brantley Gilbert - More Than Miles
TTITLE10=Mavericks - Born To Be Blue
TTITLE11=Small Town Pistols - Living On The Outside
TTITLE12=Jerrod Niemann - Only God Could Love You More
TTITLE13=Clayton Bellamy - Straight Into The Sun
TTITLE14=Thomas Rhett - Something To Do With My Hands
TTITLE15=George Strait - Give It All You Got
TTITLE16=Lady Antebellum - Blue Christmas
TTITLE17=Johnny Reid - Till We Meet Again
TTITLE18=Terry Clark -  Merry Christmas Wherever In The World You Are
EXTD=December 2012
EXTT0=
EXTT1=
EXTT2=
EXTT3=
EXTT4=
EXTT5=
EXTT6=
EXTT7=
EXTT8=
EXTT9=
EXTT10=
EXTT11=
EXTT12=
EXTT13=
EXTT14=
EXTT15=
EXTT16=
EXTT17=
EXTT18=
PLAYORDER=
